<?xml version="1.0" standalone="no"?>
<!DOCTYPE svg PUBLIC "-//W3C//DTD SVG 20010904//EN"
 "http://www.w3.org/TR/2001/REC-SVG-20010904/DTD/svg10.dtd">
<svg version="1.0" xmlns="http://www.w3.org/2000/svg"
 width="512.000000pt" height="512.000000pt" viewBox="0 0 512.000000 512.000000"
 preserveAspectRatio="xMidYMid meet">

<g transform="translate(0.000000,512.000000) scale(0.100000,-0.100000)"
fill="#000000" stroke="none">
<path d="M2310 5109 c-502 -55 -974 -249 -1355 -556 -129 -104 -340 -321 -433
-445 -265 -354 -434 -758 -498 -1193 -22 -147 -29 -428 -15 -575 42 -433 180
-833 405 -1174 414 -629 1047 -1032 1791 -1142 147 -22 428 -29 575 -15 433
42 833 180 1174 405 629 414 1032 1047 1142 1791 22 147 29 428 15 575 -51
524 -238 988 -558 1385 -104 129 -321 340 -445 433 -354 265 -755 432 -1193
498 -121 18 -487 26 -605 13z m480 -80 c1047 -95 1929 -857 2179 -1881 42
-173 60 -308 68 -498 47 -1262 -864 -2357 -2117 -2545 -58 -8 -179 -18 -270
-22 -1262 -47 -2357 864 -2545 2117 -23 153 -30 411 -16 570 93 1063 850 1947
1883 2199 116 28 286 56 388 64 105 8 323 6 430 -4z"/>
<path d="M2275 4834 c-166 -29 -336 -97 -468 -186 -80 -54 -210 -185 -267
-268 -102 -151 -182 -382 -196 -565 l-7 -90 -72 -115 c-39 -63 -95 -152 -124
-197 -95 -148 -81 -193 60 -193 61 0 78 -3 83 -16 12 -30 6 -80 -14 -117 -24
-45 -26 -92 -4 -101 9 -3 36 -6 60 -6 44 0 45 -1 42 -27 -3 -24 -8 -28 -40
-31 -21 -2 -38 -6 -38 -9 0 -2 19 -32 42 -65 l42 -59 -14 -47 c-7 -26 -18 -67
-25 -92 -23 -84 10 -122 135 -156 53 -15 106 -18 287 -18 211 -1 223 -2 250
-22 23 -18 28 -29 26 -60 -1 -22 -40 -176 -87 -344 -46 -168 -84 -305 -83
-306 1 -1 232 -3 512 -5 449 -4 510 -2 509 11 -1 8 -38 197 -83 419 -45 222
-81 404 -79 406 2 1 40 10 84 19 80 17 243 70 256 84 5 5 -35 208 -58 289 -2
9 -19 5 -56 -11 -171 -76 -421 -106 -598 -72 -84 17 -140 34 -140 45 0 4 23
29 50 56 28 27 50 57 50 65 0 9 -21 36 -47 60 -27 24 -112 104 -189 177 -84
79 -150 133 -162 133 -11 0 -35 -19 -56 -45 -21 -25 -41 -45 -46 -45 -12 0
-46 117 -60 205 -14 90 -14 241 0 330 17 106 38 171 88 274 64 131 177 246
307 312 132 68 208 84 395 83 170 -1 274 -20 384 -69 32 -14 60 -24 63 -22 8
9 83 262 83 284 0 18 -14 26 -85 52 -183 66 -505 91 -710 55z"/>
<path d="M2470 4370 c-73 -25 -136 -92 -146 -155 -10 -67 2 -108 50 -172 47
-62 257 -277 287 -294 31 -16 65 10 198 150 169 178 176 189 176 277 0 62 -3
75 -28 107 -15 20 -44 49 -64 64 -33 25 -45 28 -112 28 -61 0 -83 -4 -110 -21
l-34 -22 -46 23 c-67 34 -107 37 -171 15z m138 -64 c15 -8 36 -23 46 -35 11
-12 24 -21 31 -21 7 0 20 9 31 21 70 78 203 60 248 -34 38 -81 17 -122 -153
-297 l-130 -135 -130 135 c-190 198 -208 251 -117 338 41 38 50 42 96 42 28 0
63 -6 78 -14z"/>
<path d="M3020 3611 c-139 -133 -147 -139 -195 -145 -80 -9 -225 -7 -246 4
-22 12 -26 62 -6 78 7 6 60 12 123 12 154 1 192 8 210 36 19 28 11 59 -22 80
-20 14 -62 16 -291 15 -233 -2 -272 -4 -308 -20 -22 -10 -92 -69 -160 -134
l-120 -117 144 -139 145 -140 25 19 c14 10 50 43 79 74 l54 56 247 0 247 0 30
33 c17 17 66 77 109 132 43 55 103 130 132 166 73 91 69 129 -11 129 -39 0
-49 -8 -186 -139z"/>
<path d="M3497 3324 c-4 -4 -7 -22 -7 -41 l0 -33 81 0 81 0 -26 -31 c-19 -22
-26 -42 -26 -73 0 -81 61 -126 170 -126 103 0 160 46 160 130 0 38 -5 53 -26
74 l-27 26 27 0 c25 0 27 3 24 38 l-3 37 -211 3 c-115 1 -213 -1 -217 -4z
m322 -85 c56 -20 70 -83 25 -118 -40 -32 -126 -29 -159 4 -71 70 25 152 134
114z"/>
<path d="M3651 2936 c-55 -30 -69 -123 -26 -170 l24 -26 -24 0 c-22 0 -25 -4
-25 -40 l0 -40 165 0 165 0 0 40 0 40 -110 0 c-104 0 -112 1 -135 25 -29 28
-31 51 -9 83 14 21 22 22 135 22 l119 0 0 40 0 40 -127 0 c-87 -1 -136 -5
-152 -14z"/>
<path d="M3607 2584 c-4 -4 -7 -22 -7 -40 l0 -32 116 -4 c129 -3 144 -11 144
-75 0 -46 -21 -53 -149 -53 l-111 0 0 -40 0 -40 121 0 c134 0 178 12 198 56
20 46 14 93 -18 125 l-29 29 29 0 c29 0 30 2 27 38 l-3 37 -156 3 c-85 1 -158
-1 -162 -4z"/>
<path d="M3150 1955 l0 -285 395 0 395 0 0 115 0 115 -127 0 c-189 0 -173 -14
-173 156 l0 144 -95 0 -95 0 0 -150 0 -150 -32 0 c-81 0 -78 -7 -78 176 l0
164 -95 0 -95 0 0 -285z"/>
<path d="M1360 1531 l0 -98 38 -7 c20 -3 81 -6 135 -6 l97 0 0 -345 0 -345
130 0 130 0 0 345 0 345 130 0 130 0 0 105 0 105 -395 0 -395 0 0 -99z"/>
<path d="M3490 1301 l0 -60 -37 -3 c-38 -3 -38 -3 -38 -48 0 -45 0 -45 38 -48
l37 -3 0 -161 c0 -179 7 -205 66 -233 39 -18 143 -20 149 -2 2 6 1 28 -3 47
-7 31 -12 36 -45 41 -20 3 -41 9 -45 13 -4 4 -9 73 -10 152 l-4 144 51 0 51 0
0 50 0 50 -50 0 -50 0 0 60 0 60 -55 0 -55 0 0 -59z"/>
<path d="M2024 1227 c-2 -7 -3 -120 -2 -252 l3 -240 58 -3 57 -3 0 156 c0 122
3 164 16 190 19 42 74 69 120 62 l34 -6 0 55 0 54 -41 0 c-48 0 -89 -22 -112
-59 l-16 -26 -1 43 0 42 -55 0 c-36 0 -57 -5 -61 -13z"/>
<path d="M2390 1053 c0 -176 2 -192 23 -233 30 -60 76 -90 139 -90 62 0 115
24 139 63 l18 30 3 -44 3 -44 58 -3 57 -3 -2 253 -3 253 -57 3 -58 3 0 -161
c0 -178 -7 -208 -60 -235 -41 -21 -75 -19 -107 9 l-28 24 -5 179 -5 178 -57 3
-58 3 0 -188z"/>
<path d="M3047 1226 c-95 -34 -134 -126 -87 -204 23 -38 76 -64 165 -82 74
-15 105 -33 105 -64 0 -70 -144 -84 -180 -17 -11 22 -50 27 -98 15 -47 -13 -4
-87 73 -127 63 -32 175 -29 241 7 58 31 86 72 88 126 2 81 -41 117 -178 149
-100 24 -116 33 -116 67 0 32 36 54 88 54 36 0 49 -6 71 -29 24 -26 32 -28 74
-24 37 5 47 9 47 24 0 30 -65 94 -108 107 -52 16 -138 14 -185 -2z"/>
</g>
</svg>
